<?xml version="1.0" encoding="UTF-8"?>
<svg id="a" data-name="Layer_1" xmlns="http://www.w3.org/2000/svg" viewBox="0 0 41.89 35.02">
  <defs>
    <style>
      .b {
        fill: #a3320b;
      }
    </style>
  </defs>
  <path class="b" d="M20.5,35.02c-1.01,0-2.01-.38-2.78-1.15-1.54-1.54-1.54-4.03,0-5.56l17.45-17.45c1.54-1.54,4.02-1.54,5.56,0,1.54,1.54,1.54,4.02,0,5.56l-17.45,17.45c-.77.77-1.77,1.15-2.78,1.15Z"/>
  <path class="b" d="M14.87,18.81c-1.01,0-2.01-.38-2.78-1.15L1.15,6.71C-.38,5.18-.38,2.69,1.15,1.15S5.18-.38,6.71,1.15l10.94,10.94c1.54,1.54,1.54,4.02,0,5.56-.77.77-1.77,1.15-2.78,1.15Z"/>
</svg>