<?xml version="1.0" encoding="UTF-8"?>
<svg id="a" data-name="Layer_1" xmlns="http://www.w3.org/2000/svg" viewBox="0 0 269.76 41.18">
  <defs>
    <style>
      .b {
        fill: #fff;
      }
    </style>
  </defs>
  <g>
    <path class="b" d="M56.46,24.16c0-8.41,5.45-14.13,13.43-14.13,6.74,0,11,3.78,12.14,9.82h-4.64c-.81-3.67-3.51-5.88-7.55-5.88-5.29,0-8.85,4.21-8.85,10.19s3.56,10.09,8.85,10.09c3.94,0,6.63-2.27,7.5-5.77h4.69c-1.08,5.93-5.56,9.71-12.24,9.71-8.04,0-13.32-5.45-13.32-14.02Z"/>
    <path class="b" d="M83.48,2.86C83.48,1.19,84.72,0,86.34,0s2.86,1.19,2.86,2.86-1.24,2.86-2.86,2.86-2.86-1.19-2.86-2.86ZM84.07,10.36h4.42v27.51h-4.42V10.36Z"/>
    <path class="b" d="M116.32,22.55v15.32h-4.42v-15.05c0-5.72-2.64-8.74-7.44-8.74-5.18,0-8.31,3.83-8.31,10.03v13.75h-4.42V10.36h3.83l.59,3.72c1.62-2.1,4.42-4.05,9.06-4.05,6.2,0,11.11,3.4,11.11,12.51Z"/>
    <path class="b" d="M143.77,22.55v15.32h-4.42v-15.05c0-5.72-2.64-8.74-7.44-8.74-5.18,0-8.31,3.83-8.31,10.03v13.75h-4.42V10.36h3.83l.59,3.72c1.62-2.1,4.42-4.05,9.06-4.05,6.2,0,11.11,3.4,11.11,12.51Z"/>
    <path class="b" d="M172.36,33.82v4.05h-2.43c-3.67,0-4.91-1.56-4.96-4.26-1.73,2.48-4.48,4.58-9.22,4.58-6.04,0-10.14-3.02-10.14-8.04,0-5.5,3.83-8.58,11.06-8.58h8.09v-1.89c0-3.56-2.54-5.72-6.85-5.72-3.88,0-6.47,1.83-7.01,4.64h-4.42c.65-5.39,5.02-8.58,11.65-8.58,7.01,0,11.06,3.51,11.06,9.92v12.03c0,1.46.54,1.83,1.78,1.83h1.4ZM164.75,25.3h-8.52c-3.94,0-6.15,1.46-6.15,4.58,0,2.7,2.32,4.53,5.99,4.53,5.5,0,8.68-3.18,8.68-7.77v-1.35Z"/>
    <path class="b" d="M214.05,22.01v15.86h-4.42v-15.59c0-5.39-2.37-8.2-6.53-8.2-4.58,0-7.39,3.45-7.39,9.06v14.73h-4.42v-15.59c0-5.39-2.43-8.2-6.63-8.2-4.53,0-7.28,3.78-7.28,9.28v14.51h-4.42V10.36h3.83l.59,3.78c1.46-2,3.78-4.1,8.04-4.1,3.83,0,7.12,1.73,8.68,5.23,1.67-2.97,4.64-5.23,9.55-5.23,5.72,0,10.41,3.29,10.41,11.97Z"/>
    <path class="b" d="M215.61,24.11c0-8.36,5.61-14.08,13.65-14.08s13.65,5.72,13.65,14.08-5.61,14.08-13.65,14.08-13.65-5.72-13.65-14.08ZM238.37,24.11c0-5.88-3.67-10.14-9.12-10.14s-9.12,4.26-9.12,10.14,3.67,10.14,9.12,10.14,9.12-4.26,9.12-10.14Z"/>
    <path class="b" d="M269.76,22.55v15.32h-4.42v-15.05c0-5.72-2.64-8.74-7.44-8.74-5.18,0-8.31,3.83-8.31,10.03v13.75h-4.42V10.36h3.83l.59,3.72c1.62-2.1,4.42-4.05,9.06-4.05,6.2,0,11.11,3.4,11.11,12.51Z"/>
  </g>
  <g>
    <path class="b" d="M20.5,41.18c-1.01,0-2.01-.38-2.78-1.15-1.54-1.54-1.54-4.03,0-5.56l17.45-17.45c1.54-1.54,4.02-1.54,5.56,0,1.54,1.54,1.54,4.02,0,5.56l-17.45,17.45c-.77.77-1.77,1.15-2.78,1.15Z"/>
    <path class="b" d="M14.87,24.97c-1.01,0-2.01-.38-2.78-1.15L1.15,12.87c-1.54-1.54-1.54-4.02,0-5.56s4.03-1.54,5.56,0l10.94,10.94c1.54,1.54,1.54,4.02,0,5.56-.77.77-1.77,1.15-2.78,1.15Z"/>
  </g>
</svg>